<svg xmlns="http://www.w3.org/2000/svg" width="83.838" height="69.753" viewBox="0 0 83.838 69.753">
  <g id="logo" transform="translate(0.047 0.014)">
    <path id="Path_1" data-name="Path 1" d="M59.888,8.854c-8.621-6.034-19.873-7.3-29.876-4.469C19.388,7.365,11.506,14.657,6.915,24.6S1.523,45.584,8.4,54.611c6.571,8.607,16.866,12.529,27.311,13.939,11.209,1.518,24.214,2.036,33.468-5.477C72.007,60.8,68,56.85,65.21,59.1c-6.811,5.515-16.757,5.02-24.983,4.332-9.027-.754-18.506-3.05-25.124-9.625S7.561,38.48,10.743,29.878s9.135-15.857,17.9-19.147c9.38-3.516,20.114-2.857,28.414,2.97,2.965,2.079,5.77-2.786,2.828-4.846Z" transform="translate(-3.4 -2.96)" fill="#fff"/>
    <path id="Path_2" data-name="Path 2" d="M68.17,39.544a33.113,33.113,0,0,1,6.6,31.733c-1.089,3.45,4.327,4.931,5.411,1.494A38.873,38.873,0,0,0,72.125,35.58C69.735,32.879,65.78,36.857,68.17,39.544Z" transform="translate(-37.272 -19.734)" fill="#fff"/>
    <path id="Path_3" data-name="Path 3" d="M90.134,47.291a93.563,93.563,0,0,1,38.653-32.643c3.3-1.5.429-6.34-2.828-4.846a98.9,98.9,0,0,0-40.67,34.655c-2.022,3,2.828,5.817,4.846,2.828Z" transform="translate(-46.457 -6.435)" fill="#fff"/>
    <path id="Path_4" data-name="Path 4" d="M121.267,49.1A145.334,145.334,0,0,1,137.9,92.861c.726,3.535,6.128,2.041,5.411-1.494a150.179,150.179,0,0,0-17.2-45.1c-1.81-3.125-6.66-.3-4.846,2.828Z" transform="translate(-65.524 -25.141)" fill="#fff"/>
  </g>
</svg>
