<svg xmlns="http://www.w3.org/2000/svg" xmlns:xlink="http://www.w3.org/1999/xlink" viewBox="0 0 555 433" preserveAspectRatio="none">
  <defs>
    <linearGradient id="linear-gradient" x1="0.5" x2="0.5" y2="0.892" gradientUnits="objectBoundingBox">
      <stop offset="0" stop-color="#2b2c2f"/>
      <stop offset="1" stop-color="#333"/>
    </linearGradient>
  </defs>
  <g id="console" transform="translate(-301 -622)">
    <rect id="Rectangle_1" data-name="Rectangle 1" width="551" height="391" rx="11" transform="translate(305 664)"/>
    <path id="Rectangle_4" data-name="Rectangle 4" d="M0,0H555a0,0,0,0,1,0,0V381a10,10,0,0,1-10,10H10A10,10,0,0,1,0,381V0A0,0,0,0,1,0,0Z" transform="translate(301 664)"/>
    <path id="Rectangle_5" data-name="Rectangle 5" d="M10,0H545a10,10,0,0,1,10,10V42a0,0,0,0,1,0,0H0a0,0,0,0,1,0,0V10A10,10,0,0,1,10,0Z" transform="translate(301 622)" fill="url(#linear-gradient)"/>
    <circle id="Ellipse_1" data-name="Ellipse 1" cx="6.5" cy="6.5" r="6.5" transform="translate(362 639)" fill="#49b059"/>
    <circle id="Ellipse_2" data-name="Ellipse 2" cx="6.5" cy="6.5" r="6.5" transform="translate(342 639)" fill="#e4b35e"/>
    <circle id="Ellipse_3" data-name="Ellipse 3" cx="6.5" cy="6.5" r="6.5" transform="translate(322 639)" fill="#c36b77"/>
    <g id="Rectangle_6" data-name="Rectangle 6" transform="translate(301 622)" fill="none" stroke="rgba(112,112,112,0.45)" stroke-width="1">
      <rect width="555" height="433" rx="10" stroke="none"/>
      <rect x="0.5" y="0.5" width="554" height="432" rx="9.5" fill="none"/>
    </g>
  </g>
</svg>
